<svg xmlns="http://www.w3.org/2000/svg" viewBox="0 0 98 12" fill="none">
  <path
    fill="currentColor"
    d="M14.71.304v11.408h-2.637V4.794h-.351l-2.893 6.918H6.848l-2.86-6.918h-.384v6.918H1V.304h3.563L7.631 8.1h.432L11.13.304zM22.73.304v11.408h-2.748V.304zM35.497 11.712 33.212 7.75h-.463l-2.253 3.962h-3.42l3.692-5.784L27.204.304h3.404l2.125 3.77h.495L35.37.305h3.403L35.21 5.928l3.69 5.784zM51.492.304v2.365h-3.244v9.043h-2.765V2.67H42.24V.304zM58.442.304v11.408h-2.748V.304zM66.879.304v9.028h4.937v2.38h-7.702V.305zM84.742.304v2.365h-5.736v2.109h4.314v2.397h-4.314v2.157h5.736v2.38h-8.516V.305zM88.72 11.089V8.324c.912.64 2.461 1.246 3.883 1.246 1.151 0 1.758-.367 1.758-1.102 0-.895-.927-.975-2.653-1.422-2.189-.592-3.26-1.63-3.26-3.404C88.449 1.39 90.159 0 92.892 0c1.246 0 2.572.336 3.611.895v2.589c-.91-.528-2.3-1.023-3.563-1.023-1.103 0-1.678.32-1.678 1.023s.895.959 2.668 1.406c2.221.607 3.26 1.55 3.26 3.339 0 2.317-1.79 3.771-4.634 3.771-1.342 0-2.748-.335-3.834-.91"
  />
</svg>
